<svg width="486" height="364" viewBox="0 0 486 364" fill="none" xmlns="http://www.w3.org/2000/svg">
<g clip-path="url(#clip0)">
<path d="M484.598 24.7112L455.065 120.141L365.808 182.394C353.74 181.756 339.322 183.011 326.577 189.702C298.139 204.638 221.329 249.446 221.329 249.446L210.794 255.241C208.961 256.237 207.536 257.845 206.768 259.786C206 261.726 205.938 263.874 206.593 265.855C210.114 276.579 214.345 287.058 219.258 297.22L14.518 265.696C11.5668 265.273 8.78126 264.072 6.44708 262.217C4.11289 260.363 2.31406 257.92 1.23506 255.141C-0.00740047 252.082 -0.330042 248.726 0.306687 245.486C0.943416 242.245 2.51184 239.261 4.81965 236.899C25.8891 214.994 67.8289 176.041 150.195 110.303C270.06 14.7142 416.013 4.75696 469.582 4.51798C472.034 4.49965 474.455 5.05952 476.649 6.15208C478.843 7.24463 480.749 8.83908 482.212 10.8061C483.674 12.7732 484.653 15.0574 485.067 17.4734C485.482 19.8894 485.321 22.3691 484.598 24.7112Z" fill="#00D3B8"/>
<path d="M210.794 255.241L221.388 249.505C221.388 249.505 238.535 239.548 259.624 227.38C257.254 227.759 254.924 228.097 252.614 228.376C243.298 215.65 231.547 204.9 218.043 196.752C192.811 181.677 164.772 178.231 139.062 187.014C113.353 195.796 93.2589 215.71 82.5848 243.073C82.2661 243.909 81.9674 244.766 81.6687 245.622C72.7657 248.026 63.681 249.698 54.5054 250.62C46.0418 251.278 25.9482 252.99 1.23438 255.141C2.31337 257.92 4.11221 260.362 6.4464 262.217C8.78058 264.072 11.5661 265.273 14.5173 265.696L219.257 297.16C214.345 286.998 210.113 276.52 206.592 265.795C205.953 263.822 206.023 261.687 206.79 259.76C207.557 257.833 208.973 256.235 210.794 255.241ZM167.818 226.444C152.146 226.444 131.853 231.761 111.62 237.417C119.745 224.263 132.149 214.306 146.749 209.218C153.491 206.904 160.571 205.726 167.699 205.733C181.277 205.905 194.554 209.76 206.114 216.885C212.002 220.461 217.472 224.683 222.424 229.471C203.883 228.874 186.419 226.444 167.818 226.444Z" fill="#2A197E"/>
<path d="M395.679 187.532L444.748 153.677L433.197 190.977C420.608 191.065 408.041 189.911 395.679 187.532Z" fill="#00D3B8"/>
<path d="M289.138 210.453C268.765 222.003 246.72 234.749 233.477 242.416L192.832 160.627C142.05 141.549 146.272 129.481 151.708 102.218L121.438 79.9937C116.42 76.3294 120.363 68.2641 126.636 69.3594C129.775 69.9613 132.791 71.0854 135.558 72.6851C145.276 78.0819 156.428 83.2796 163.318 86.3663C163.693 86.4693 164.089 86.4605 164.459 86.341C164.828 86.2216 165.155 85.9967 165.398 85.6941C165.642 85.3915 165.791 85.0243 165.829 84.6378C165.866 84.2513 165.789 83.8622 165.609 83.5185L144.28 55.0409C140.576 50.0822 146.67 43.0923 152.246 46.0197C156.05 48.1191 159.499 50.8076 162.462 53.9855C179.589 71.3508 185.722 77.5243 185.722 77.5243C188.072 79.6751 190.283 81.786 192.393 83.8969C197.428 83.799 202.323 85.5489 206.154 88.8158C219.218 99.47 218.222 114.246 224.077 123.686C232.262 136.152 240.805 148.38 249.966 160.149L289.138 210.453Z" fill="#FA7C73"/>
<path d="M219.258 297.16C225.123 309.556 232.516 321.17 241.263 331.732C212.785 343.681 186.956 353.936 174.45 357.86C138.186 369.231 117.555 364.65 119.686 343.322C121.816 321.994 142.448 275.752 142.448 275.752L141.432 273.562C140.116 270.737 139.436 267.657 139.441 264.541C139.443 261.761 139.984 259.009 141.034 256.436C142.952 251.736 146.482 247.874 150.991 245.542C159.494 241.161 173.773 234.749 183.671 235.227C198.606 235.924 221.369 249.446 221.369 249.446L210.794 255.241C208.959 256.24 207.533 257.853 206.765 259.796C205.998 261.74 205.936 263.891 206.592 265.875C210.116 276.573 214.347 287.024 219.258 297.16Z" fill="#FA7C73"/>
<path d="M406.015 154.374L365.807 182.394C360.681 182.111 355.541 182.23 350.434 182.752C349.151 178.761 346.642 175.277 343.264 172.795C327.91 182.055 310.565 189.443 302.938 187.651C289.396 184.445 275.057 160.09 267.211 141.848C259.365 123.606 271.194 109.288 271.971 94.4117C272.747 79.5357 271.851 63.644 286.787 48.3696C289.591 45.5153 292.585 42.854 295.749 40.4038C305.25 32.1877 316.491 26.2315 328.625 22.9824C340.759 19.7333 353.471 19.2759 365.807 21.6445C399.244 27.6188 405.158 45.8206 404.202 73.5613C403.247 101.302 399.762 140.175 404.202 149.714V149.893C404.76 151.407 405.364 152.9 406.015 154.374Z" fill="#FA7C73"/>
<path d="M433.159 190.937C432.098 194.581 429.804 197.744 426.669 199.884C423.534 202.023 419.753 203.007 415.972 202.667C407.469 202.388 398.348 196.194 390.761 190.957L416.908 172.875C421.678 179.448 427.125 185.501 433.159 190.937Z" fill="#FA7C73"/>
<path d="M404.242 59.3624C403.855 53.4418 402.249 47.6651 399.523 42.3953C399.523 42.3953 408.743 21.4453 397.71 13.0215C386.678 4.59769 375.426 12.1851 375.426 12.1851C375.426 12.1851 368.834 1.17238 357.503 0.913493C346.172 0.654606 335.876 10.4326 331.435 8.87926C326.994 7.32594 318.829 -5.20019 296.605 4.43838C291.196 6.60751 286.373 10.0184 282.525 14.3956C277.387 19.2348 273.345 16.2277 268.107 20.1906C265.758 22.0331 263.858 24.3851 262.551 27.069C261.244 29.7529 260.563 32.6987 260.56 35.6841C260.527 36.9854 260.231 38.2666 259.69 39.4506C259.149 40.6347 258.375 41.6973 257.413 42.5745C256.896 42.9529 256.358 43.3312 255.82 43.7494C243.234 53.4278 247.118 82.2639 268.107 81.9055C272.622 82.0214 277.092 80.9852 281.096 78.8946C285.099 76.804 288.504 73.7281 290.989 69.9568C291.854 68.6769 293.103 67.7042 294.556 67.1783C296.008 66.6523 297.59 66.6002 299.074 67.0294C302.996 67.8344 307.06 67.6011 310.864 66.3524C314.639 65.3433 317.986 63.1396 320.406 60.0706C322.825 57.0017 324.186 53.2321 324.286 49.3254C324.286 49.3254 331.435 54.8817 339.202 51.536C341.355 50.7475 343.249 49.3803 344.676 47.5849C346.102 45.7895 347.006 43.6354 347.287 41.3597C347.287 41.3597 357.503 40.8021 357.404 49.3254C357.244 63.8431 343.663 70.0365 348.402 83.877C350.951 91.3051 359.435 89.8514 359.435 89.8514L361.207 94.352L364.314 83.2198L375.984 110.702C390.163 133.484 402.211 139.219 402.211 139.219C402.211 139.219 402.211 113.669 402.589 107.018C402.968 100.366 405.059 69.6781 404.242 59.3624Z" fill="#D23DFB"/>
<path d="M370.528 144.616C369.842 144.616 369.183 144.343 368.698 143.858C368.212 143.372 367.939 142.714 367.939 142.027C367.939 141.34 368.212 140.682 368.698 140.197C369.183 139.711 369.842 139.438 370.528 139.438C375.148 139.438 379.052 133.822 379.052 127.191C379.052 120.559 375.069 114.944 370.528 114.944C369.842 114.944 369.183 114.671 368.698 114.185C368.212 113.7 367.939 113.041 367.939 112.355C367.939 111.668 368.212 111.01 368.698 110.524C369.183 110.039 369.842 109.766 370.528 109.766C378.076 109.766 384.229 117.592 384.229 127.191C384.229 136.79 378.076 144.616 370.528 144.616Z" fill="#FFE234"/>
<path d="M289.555 88.9951C289.274 88.1299 288.696 87.3919 287.924 86.911C287.151 86.4302 286.234 86.2373 285.334 86.3664C275.464 88.1453 266.067 91.9418 257.732 97.5184C257.254 97.8738 256.874 98.346 256.63 98.8899C256.386 99.4338 256.285 100.031 256.338 100.625L252.515 102.338L254.128 105.962L257.214 104.588C259.206 112.395 264.364 125.458 274.859 125.458C290.671 125.458 295.45 106.4 289.555 88.9951Z" fill="#2A197E"/>
<path d="M303.436 121.993L300.548 91.9424L290.412 90.8471C290.412 91.2255 290.272 91.6038 290.212 91.9822L290.053 91.4445C290.044 92.2993 289.964 93.1519 289.814 93.9936C289.575 95.1486 289.316 96.2638 289.037 97.3193C286.409 105.803 278.423 109.427 279.08 114.983C279.737 120.539 287.464 124.741 298.995 121.714C300.448 121.814 301.862 121.814 303.436 121.993Z" fill="#FA7C73"/>
<path d="M373.356 79.3166L341.672 76.7676C341.207 76.0552 340.595 75.4504 339.877 74.9936C339.159 74.5368 338.352 74.2386 337.51 74.1189C324.243 72.2765 310.739 74.8444 299.075 81.4275C298.474 81.7722 297.989 82.2872 297.681 82.9075C297.372 83.5277 297.255 84.2255 297.342 84.9126C297.342 85.3109 297.402 85.749 297.522 86.2269C292.519 86.6269 287.681 88.2031 283.402 90.8272L285.633 94.133C289.467 91.8572 293.773 90.4944 298.219 90.1501C299.951 98.5739 304.193 111.14 314.608 112.056C330.241 113.33 344.48 98.1158 342.787 80.9098L373.037 83.3393L373.356 79.3166Z" fill="#2A197E"/>
<path d="M331.018 131.234C325.043 150.013 303.934 159.93 295.172 156.425C286.409 152.92 282.586 140.673 285.672 138.502C286.111 138.204 286.748 137.785 287.564 137.307C295.287 132.761 303.358 128.832 311.701 125.558C318.053 123.308 323.052 121.475 326.059 121.436C329.683 121.396 333.507 123.547 331.018 131.234Z" fill="#2A197E"/>
<path d="M319.447 131.234C314.289 133.763 298.099 142.246 295.052 143.541C292.005 144.835 290.611 144.656 289.575 142.983C288.705 141.177 288.038 139.28 287.584 137.327C295.307 132.781 303.378 128.852 311.72 125.578C318.073 123.328 323.071 121.495 326.079 121.456C326.596 125.797 323.988 129.003 319.447 131.234Z" fill="white"/>
<path d="M361.427 83.9766C362.796 80.8675 365.021 78.2114 367.841 76.3181C370.662 74.4247 373.963 73.372 377.359 73.2826C380.443 73.2825 383.474 74.0782 386.161 75.5927C389.886 77.7421 392.73 81.1414 394.188 85.1877C395.646 89.234 395.624 93.6659 394.127 97.6977C392.841 101.146 390.517 104.11 387.475 106.181L383.891 108.432C379.39 111.518 376.423 122.631 368.138 122.71C359.854 122.79 357.862 114.545 357.862 114.545L357.404 95.7062L361.387 83.9766" fill="#FA7C73"/>
<path d="M370.528 144.616C362.96 144.616 356.807 136.79 356.807 127.191C356.807 117.592 362.96 109.766 370.528 109.766C371.214 109.766 371.873 110.039 372.358 110.524C372.844 111.01 373.117 111.668 373.117 112.355C373.117 113.041 372.844 113.7 372.358 114.185C371.873 114.671 371.214 114.944 370.528 114.944C365.888 114.944 361.984 120.559 361.984 127.191C361.984 133.822 365.967 139.438 370.528 139.438C371.214 139.438 371.873 139.711 372.358 140.197C372.844 140.682 373.117 141.34 373.117 142.027C373.111 142.712 372.837 143.368 372.353 143.852C371.868 144.336 371.213 144.611 370.528 144.616Z" fill="#FFE234"/>
</g>
<defs>
<clipPath id="clip0">
<rect width="485.314" height="363" fill="white" transform="translate(0 0.913574)"/>
</clipPath>
</defs>
</svg>
